<svg width="396" height="259.6396854896748" viewBox="0 0 350 229.47952000350043" class="looka-1j8o68f"><defs id="SvgjsDefs1021"></defs><g id="SvgjsG1022" featurekey="monogramFeature-0" transform="matrix(4.167286647208816,0,0,4.167286647208816,92.50105714630905,-75.13200816466684)" fill="#111111"><path d="M35.346 18.029000000000003 l1.2483 0 l-16.491 42 l-17.104 -42 l1.26 0 l11.486 28.216 c2.6425 -0.5775 5.4367 -0.58916 8.0676 -0.01166 c0.13998 0.02918 0.27416 0.07002 0.41414 0.099198 z M20.08 56.8908 l3.7159 -9.4614 c-0.075822 -0.017519 -0.15164 -0.035039 -0.23332 -0.052559 c-2.4034 -0.53086 -4.9525 -0.53672 -7.3674 -0.035039 z"></path></g><g id="SvgjsG1023" featurekey="nameFeature-0" transform="matrix(1.098073698699178,0,0,1.098073698699178,-1.3176892762027608,184.80987741649363)" fill="#111111"><path d="M31.2 10.16 l-12.52 29.84 l-5.16 0 l-12.32 -29.84 l4.72 0 l10.2 24.96 l10.28 -24.96 l4.8 0 z M67.53 24.880000000000003 q0 -3.2 -1.64 -5.8 q-1.56 -2.52 -4.26 -3.96 t-5.86 -1.44 q-3.28 0 -5.98 1.48 t-4.22 4.04 q-1.56 2.68 -1.56 5.96 q0 3.12 1.68 5.76 q1.6 2.48 4.3 3.94 t5.84 1.46 t5.84 -1.52 t4.26 -4.08 q1.6 -2.68 1.6 -5.84 z M71.85 25.119999999999997 q0 4.32 -2.24 7.96 q-2.16 3.48 -5.86 5.54 t-7.98 2.06 q-4.44 0 -8.16 -2.16 q-3.64 -2.08 -5.72 -5.72 q-2.16 -3.72 -2.16 -8.16 q0 -4.28 2.28 -7.88 q2.16 -3.44 5.86 -5.46 t7.94 -2.02 q4.36 0 8.08 2.12 q3.64 2.08 5.76 5.64 q2.2 3.72 2.2 8.08 z M87.86000000000001 40 l-4.28 0 l0 -29.84 l4.28 0 l0 29.84 z M127.15 14 l-2.8 3.28 q-1.64 -1.68 -3.92 -2.64 t-4.8 -0.96 q-3.28 0 -5.98 1.48 t-4.22 4.04 q-1.56 2.68 -1.56 5.96 q0 3.12 1.68 5.76 q1.6 2.48 4.3 3.94 t5.82 1.46 q2.88 0 5.36 -1.24 t4.12 -3.44 l2.68 3.64 q-2.28 2.56 -5.46 3.98 t-6.74 1.42 q-4.44 0 -8.16 -2.16 q-3.64 -2.08 -5.72 -5.72 q-2.16 -3.72 -2.16 -8.16 q0 -4.28 2.28 -7.88 q2.16 -3.44 5.86 -5.46 t7.94 -2.02 q3.32 0 6.32 1.28 q2.92 1.2 5.16 3.44 z M143.51999999999998 28.04 l0 7.6 l18.4 0 l0 4.36 l-22.76 0 l0 -29.84 l21 0 l0 4.4 l-16.64 0 l0 9.04 q1.24 -0.72 2.76 -0.96 q1.12 -0.2 2.88 -0.2 l6.52 0 l0 4.44 l-6.52 0 q-1.64 0 -2.88 0.2 q-1.52 0.28 -2.76 0.96 z M183.17 13.32 l-1.64 -3.68 l4.8 0 l14.36 30.36 l-4.88 0 l-1.96 -4.36 l-9.08 0 q-2.56 0 -4.6 0.48 q-1.8 0.44 -3 1.16 q-1.08 0.64 -1.44 1.32 l-0.76 1.4 l-4.72 0 z M186.37 31.240000000000002 l5.52 0 l-6.52 -12.6 l-6.6 14.28 q0.88 -0.76 2.68 -1.2 q2.04 -0.48 4.92 -0.48 z M221.26 22.92 l5.28 0 q4.4 0 4.4 -4.24 q0 -2.2 -1.1 -3.18 t-3.3 -0.98 l-10.96 0 l0 9.6 q1.24 -0.72 2.8 -1 q1.16 -0.2 2.88 -0.2 z M215.57999999999998 40 l-4.36 0 l0 -29.84 l15.32 0 q2.64 0 4.6 1.02 t3.04 2.94 t1.08 4.54 t-1.08 4.58 t-3.06 3.02 t-4.58 1.06 l-5.28 0 q-3.44 0 -5.68 1.2 l0 11.48 z M250.87 40 l-4.28 0 l0 -29.84 l4.28 0 l0 29.84 z M262.2 37.52 q0 -1 0.68 -1.7 t1.68 -0.7 t1.7 0.7 t0.7 1.7 t-0.7 1.68 t-1.7 0.68 t-1.68 -0.68 t-0.68 -1.68 z M287.61 13.32 l-1.64 -3.68 l4.8 0 l14.36 30.36 l-4.88 0 l-1.96 -4.36 l-9.08 0 q-2.56 0 -4.6 0.48 q-1.8 0.44 -3 1.16 q-1.08 0.64 -1.44 1.32 l-0.76 1.4 l-4.72 0 z M290.81 31.240000000000002 l5.52 0 l-6.52 -12.6 l-6.6 14.28 q0.88 -0.76 2.68 -1.2 q2.04 -0.48 4.92 -0.48 z M319.94 40 l-4.28 0 l0 -29.84 l4.28 0 l0 29.84 z"></path></g></svg>
